<svg xmlns="http://www.w3.org/2000/svg" xmlns:xlink="http://www.w3.org/1999/xlink" width="371.882" height="353.252" viewBox="0 0 371.882 353.252">
  <defs>
    <pattern id="pattern" preserveAspectRatio="xMidYMid slice" width="100%" height="100%" viewBox="0 0 548 806">
      <image width="548" height="806" xlink:href="shristy.jpg"/>
    </pattern>
  </defs>
  <g id="Group_5" data-name="Group 5" transform="translate(-1285 -326)">
    <g id="Subtraction_1" data-name="Subtraction 1" transform="translate(1849.362 1640.211) rotate(67)" fill="#2e72e0">
      <path d="M -1128.662231445313 33.55205535888672 C -1110.395629882813 6.989539623260498 -1100.754638671875 -23.5479850769043 -1100.754638671875 -54.92870712280273 C -1100.754638671875 -148.0708160400391 -1185.34619140625 -223.847412109375 -1289.323364257813 -223.847412109375 C -1294.784057617188 -223.847412109375 -1300.284912109375 -223.6358795166016 -1305.7138671875 -223.2178802490234 C -1294.441528320313 -228.4087219238281 -1282.530395507813 -232.4491119384766 -1270.2646484375 -235.2403869628906 C -1256.6875 -238.3303833007813 -1242.632446289063 -239.8971710205078 -1228.489990234375 -239.8971710205078 C -1217.017578125 -239.8971710205078 -1205.552368164063 -238.8621368408203 -1194.412841796875 -236.8208465576172 C -1183.556884765625 -234.8314971923828 -1172.879150390625 -231.86328125 -1162.676147460938 -227.9986724853516 C -1152.659057617188 -224.2043914794922 -1142.997436523438 -219.5082092285156 -1133.959716796875 -214.0405578613281 C -1125.008056640625 -208.6246032714844 -1116.591552734375 -202.4058074951172 -1108.943725585938 -195.5569915771484 C -1101.295654296875 -188.7080230712891 -1094.352661132813 -181.1722717285156 -1088.307495117188 -173.1590576171875 C -1082.205200195313 -165.0706329345703 -1076.963745117188 -156.4234161376953 -1072.72900390625 -147.45751953125 C -1068.416870117188 -138.3271026611328 -1065.105102539063 -128.7731628417969 -1062.885864257813 -119.0611343383789 C -1060.608764648438 -109.095703125 -1059.4541015625 -98.83870697021484 -1059.4541015625 -88.57513427734375 C -1059.4541015625 -76.07195281982422 -1061.16162109375 -63.64106369018555 -1064.529052734375 -51.62770462036133 C -1067.799682617188 -39.96049118041992 -1072.645629882813 -28.64352607727051 -1078.93212890625 -17.99113464355469 C -1085.109985351563 -7.522883892059326 -1092.680419921875 2.309187412261963 -1101.43310546875 11.23190212249756 C -1109.572631835938 19.52934074401855 -1118.723876953125 27.02970314025879 -1128.662231445313 33.55205535888672 Z" stroke="none"/>
      <path d="M -1126.821166992188 31.72287559509277 C -1117.726684570313 25.55664443969727 -1109.32421875 18.56208992004395 -1101.7900390625 10.88175868988037 C -1093.065673828125 1.987937450408936 -1085.52001953125 -7.811812400817871 -1079.36279296875 -18.24527740478516 C -1073.098266601563 -28.86031341552734 -1068.269409179688 -40.13720703125 -1065.010498046875 -51.76263427734375 C -1061.6552734375 -63.73206329345703 -1059.9541015625 -76.11759948730469 -1059.9541015625 -88.57513427734375 C -1059.9541015625 -98.80131530761719 -1061.1044921875 -109.0208129882813 -1063.373291015625 -118.9497756958008 C -1065.584594726563 -128.6266326904297 -1068.88427734375 -138.1462097167969 -1073.181030273438 -147.2439880371094 C -1077.4013671875 -156.1789855957031 -1082.624877929688 -164.7967834472656 -1088.706665039063 -172.8579254150391 C -1094.732299804688 -180.8453826904297 -1101.6533203125 -188.3571014404297 -1109.27734375 -195.1845245361328 C -1116.901977539063 -202.0126647949219 -1125.29345703125 -208.2128448486328 -1134.218627929688 -213.6127471923828 C -1143.230346679688 -219.0647125244141 -1152.864379882813 -223.7475280761719 -1162.853271484375 -227.5310668945313 C -1173.028198242188 -231.3850555419922 -1183.676635742188 -234.3451385498047 -1194.503051757813 -236.3290557861328 C -1205.61279296875 -238.3649139404297 -1217.047729492188 -239.3971710205078 -1228.489990234375 -239.3971710205078 C -1242.59521484375 -239.3971710205078 -1256.612915039063 -237.8345947265625 -1270.153686523438 -234.7528533935547 C -1281.464721679688 -232.1788635253906 -1292.4736328125 -228.5395355224609 -1302.955444335938 -223.9131317138672 C -1298.426513671875 -224.2016754150391 -1293.86083984375 -224.347412109375 -1289.323364257813 -224.347412109375 C -1185.070556640625 -224.347412109375 -1100.254638671875 -148.3464965820313 -1100.254638671875 -54.92870712280273 C -1100.254638671875 -24.27458000183105 -1109.423217773438 5.575498104095459 -1126.821166992188 31.72287559509277 M -1130.5283203125 35.35197448730469 L -1130.529541015625 35.35079574584961 C -1111.377685546875 8.391330718994141 -1101.254638671875 -22.8267765045166 -1101.254638671875 -54.92870712280273 C -1101.254638671875 -147.7951354980469 -1185.621948242188 -223.347412109375 -1289.323364257813 -223.347412109375 C -1295.701538085938 -223.347412109375 -1302.1337890625 -223.0582122802734 -1308.442016601563 -222.4878540039063 C -1296.397827148438 -228.2665557861328 -1283.590454101563 -232.7206726074219 -1270.375610351563 -235.7279205322266 C -1256.761962890625 -238.8262481689453 -1242.669555664063 -240.3971710205078 -1228.489990234375 -240.3971710205078 C -1216.987426757813 -240.3971710205078 -1205.491821289063 -239.3593902587891 -1194.32275390625 -237.3126678466797 C -1183.437744140625 -235.3179931640625 -1172.73046875 -232.3416290283203 -1162.4990234375 -228.4662475585938 C -1152.453491210938 -224.6612091064453 -1142.764404296875 -219.9515991210938 -1133.700927734375 -214.4683532714844 C -1124.724243164063 -209.0372467041016 -1116.282104492188 -202.7999267578125 -1108.610229492188 -195.9294586181641 C -1100.938232421875 -189.0591278076172 -1093.973022460938 -181.4993896484375 -1087.908325195313 -173.4601745605469 C -1081.785034179688 -165.343994140625 -1076.526000976563 -156.6672821044922 -1072.27685546875 -147.6710662841797 C -1067.949584960938 -138.5085906982422 -1064.625854492188 -128.9203491210938 -1062.3984375 -119.1725234985352 C -1060.112915039063 -109.170524597168 -1058.9541015625 -98.87606048583984 -1058.9541015625 -88.57513427734375 C -1058.9541015625 -76.02616882324219 -1060.667846679688 -63.54984664916992 -1064.047607421875 -51.49274063110352 C -1067.329711914063 -39.78463363647461 -1072.192504882813 -28.42752647399902 -1078.501586914063 -17.73702621459961 C -1084.7001953125 -7.233490943908691 -1092.295532226563 2.630866050720215 -1101.076171875 11.58204460144043 C -1109.821411132813 20.4969367980957 -1119.730224609375 28.49429512023926 -1130.5283203125 35.35197448730469 Z" stroke="none" fill="#2e72e0"/>
    </g>
    <circle id="Ellipse_4" data-name="Ellipse 4" cx="137" cy="137" r="137" transform="translate(1285 326)" fill="url(#pattern)"/>
  </g>
</svg>
